<?xml version="1.0" encoding="utf-8"?>
<!-- Generator: Adobe Illustrator 25.0.0, SVG Export Plug-In . SVG Version: 6.00 Build 0)  -->
<svg version="1.1" xmlns="http://www.w3.org/2000/svg" xmlns:xlink="http://www.w3.org/1999/xlink" x="0px" y="0px"
	 viewBox="0 0 100 70" style="enable-background:new 0 0 100 70;" xml:space="preserve">
<style type="text/css">
	.st0{opacity:0.51;fill:#FFED00;}
	.st1{opacity:0.49;fill:#95C11F;}
	.st2{fill:#EA5B0C;}
	.st3{font-family:'CopperplateGothic-Bold';}
	.st4{font-size:21.4474px;}
	.st5{fill:#E6332A;}
	.st6{fill:#95C11F;}
	.st7{fill:#FF5500;}
</style>
<g id="Capa_1">
	<path class="st0" d="M-49.9,8.34c-15.08,0-27.35,12.28-27.35,27.35s12.26,27.34,27.35,27.34s27.35-12.26,27.35-27.34
		S-34.82,8.34-49.9,8.34L-49.9,8.34z M-49.9,11.93c13.15,0,23.78,10.62,23.78,23.77c0,13.15-10.62,23.75-23.78,23.75
		s-23.78-10.6-23.78-23.75C-73.68,22.55-63.06,11.93-49.9,11.93z M-49.9,13.71c-3.57,0-4.76,2.38-4.76,4.75
		c0,2.38,2.77,9.11,4.76,14.26c1.98-5.15,4.76-11.88,4.76-14.26C-45.15,16.09-46.34,13.71-49.9,13.71z M-65.45,20.13
		c-2.52,2.52-1.68,5.04,0,6.72c1.68,1.68,8.41,4.48,13.45,6.72c-2.24-5.04-5.04-11.76-6.73-13.45
		C-61.29,17.68-63.65,18.37-65.45,20.13L-65.45,20.13z M-41.08,20.13c-1.68,1.68-4.48,8.4-6.73,13.45
		c5.04-2.24,11.77-5.04,13.45-6.72c1.68-1.68,2.52-4.2,0-6.72C-36.42,18.06-38.99,18.01-41.08,20.13L-41.08,20.13z M-71.9,35.7
		c0,3.57,2.38,4.75,4.76,4.75c2.38,0,9.12-2.77,14.27-4.75c-5.15-1.98-11.89-4.75-14.27-4.75C-70.88,31.03-71.85,33.77-71.9,35.7z
		 M-32.66,30.94c-2.38,0-9.12,2.77-14.27,4.75c5.15,1.98,11.89,4.75,14.27,4.75c2.38,0,4.76-1.19,4.76-4.75
		C-27.91,32.13-30.28,30.94-32.66,30.94z M-52,37.79c-5.04,2.24-11.77,5.04-13.45,6.72c-1.68,1.68-2.52,4.2,0,6.72
		c2.52,2.52,5.04,1.68,6.73,0C-57.04,49.56-54.24,42.84-52,37.79L-52,37.79z M-47.8,37.79c2.24,5.04,5.04,11.76,6.73,13.45
		c1.68,1.68,4.2,2.52,6.73,0c2.52-2.52,1.68-5.04,0-6.72C-36.03,42.84-42.76,40.04-47.8,37.79L-47.8,37.79z M-49.9,38.67
		c-1.98,5.15-4.76,11.88-4.76,14.26c0,2.38,1.19,4.75,4.76,4.75s4.76-2.38,4.76-4.75C-45.15,50.55-47.92,43.82-49.9,38.67z"/>
	<path class="st1" d="M-52.87,9.22c-15.08,0-27.35,12.28-27.35,27.35s12.26,27.34,27.35,27.34s27.35-12.26,27.35-27.34
		S-37.79,9.22-52.87,9.22L-52.87,9.22z M-52.87,12.81c13.15,0,23.78,10.62,23.78,23.77c0,13.15-10.62,23.75-23.78,23.75
		s-23.78-10.6-23.78-23.75C-76.65,23.43-66.03,12.81-52.87,12.81z M-52.87,14.59c-3.57,0-4.76,2.38-4.76,4.75
		c0,2.38,2.77,9.11,4.76,14.26c1.98-5.15,4.76-11.88,4.76-14.26C-48.12,16.97-49.31,14.59-52.87,14.59z M-68.42,21.01
		c-2.52,2.52-1.68,5.04,0,6.72c1.68,1.68,8.41,4.48,13.45,6.72c-2.24-5.04-5.04-11.76-6.73-13.45
		C-64.26,18.56-66.62,19.25-68.42,21.01L-68.42,21.01z M-44.05,21.01c-1.68,1.68-4.48,8.4-6.73,13.45
		c5.04-2.24,11.77-5.04,13.45-6.72c1.68-1.68,2.52-4.2,0-6.72C-39.39,18.94-41.96,18.89-44.05,21.01L-44.05,21.01z M-74.87,36.58
		c0,3.57,2.38,4.75,4.76,4.75c2.38,0,9.12-2.77,14.27-4.75c-5.15-1.98-11.89-4.75-14.27-4.75C-73.86,31.91-74.82,34.65-74.87,36.58z
		 M-35.63,31.82c-2.38,0-9.12,2.77-14.27,4.75c5.15,1.98,11.89,4.75,14.27,4.75c2.38,0,4.76-1.19,4.76-4.75
		C-30.88,33.01-33.26,31.82-35.63,31.82z M-54.97,38.68c-5.04,2.24-11.77,5.04-13.45,6.72c-1.68,1.68-2.52,4.2,0,6.72
		c2.52,2.52,5.04,1.68,6.73,0C-60.02,50.44-57.22,43.72-54.97,38.68L-54.97,38.68z M-50.78,38.68c2.24,5.04,5.04,11.76,6.73,13.45
		c1.68,1.68,4.2,2.52,6.73,0c2.52-2.52,1.68-5.04,0-6.72C-39.01,43.72-45.73,40.92-50.78,38.68L-50.78,38.68z M-52.87,39.55
		c-1.98,5.15-4.76,11.88-4.76,14.26c0,2.38,1.19,4.75,4.76,4.75s4.76-2.38,4.76-4.75S-50.89,44.7-52.87,39.55z"/>
	<text transform="matrix(1 0 0 1 -91.4958 44.7807)"><tspan x="0" y="0" class="st4" style="fill:#F39200; font-family:'Fresh-Lychee';">&lt;C</tspan><tspan x="20.05" y="0" class="st3 st4" style="fill:#F39200;">í</tspan><tspan x="26.26" y="0" class="st4" style="fill:#F39200; font-family:'Fresh-Lychee';">trico&gt;</tspan></text>
</g>
<g id="Capa_2">
	<text transform="matrix(1 0 0 1 5.0687 48.0579)" class="st2 st3 st4">Cítric</text>
	<g>
		<path class="st5" d="M87.26,35.94c-0.45-0.18-0.93-0.3-1.41-0.38c-0.3-0.03-0.55,0.2-0.55,0.5v4.37l2.19-3.8
			C87.64,36.39,87.54,36.06,87.26,35.94L87.26,35.94z"/>
		<path class="st6" d="M85.85,47.13c0.48-0.08,0.96-0.2,1.41-0.38c0.28-0.1,0.38-0.45,0.23-0.7l-2.19-3.8v4.37
			C85.3,46.92,85.55,47.15,85.85,47.13L85.85,47.13z"/>
		<path class="st5" d="M89.5,38.48c0.25-0.15,0.33-0.48,0.15-0.73c-0.3-0.38-0.65-0.73-1.03-1.03c-0.23-0.18-0.58-0.1-0.73,0.15
			l-2.19,3.8L89.5,38.48z"/>
		<path class="st5" d="M90.33,41.09c0.28,0,0.53-0.25,0.48-0.55c-0.08-0.48-0.2-0.96-0.38-1.41c-0.1-0.28-0.45-0.38-0.7-0.23
			l-3.77,2.19L90.33,41.09z"/>
		<path class="st6" d="M80.6,44.21c-0.25,0.15-0.33,0.48-0.15,0.73c0.3,0.38,0.65,0.73,1.03,1.03c0.23,0.18,0.58,0.1,0.73-0.15
			l2.19-3.8L80.6,44.21z"/>
		<path class="st6" d="M89.5,44.21l-3.8-2.19l2.19,3.8c0.15,0.25,0.48,0.33,0.73,0.15c0.38-0.3,0.73-0.65,1.03-1.03
			C89.82,44.69,89.75,44.34,89.5,44.21L89.5,44.21z"/>
		<path class="st6" d="M90.33,41.6h-4.37l3.8,2.19c0.25,0.15,0.58,0.05,0.7-0.23c0.18-0.45,0.3-0.93,0.38-1.41
			C90.85,41.82,90.65,41.6,90.33,41.6L90.33,41.6z"/>
		<path class="st5" d="M84.8,40.44v-4.37c0-0.3-0.25-0.53-0.55-0.48c-0.48,0.08-0.96,0.2-1.41,0.38c-0.28,0.1-0.38,0.45-0.23,0.7
			L84.8,40.44z"/>
		<path class="st7" d="M85.05,48.63c4.02,0,7.29-3.27,7.29-7.29s-3.27-7.29-7.29-7.29c-4.02,0-7.29,3.27-7.29,7.29
			S81.02,48.63,85.05,48.63z M78.79,40.49c0.08-0.53,0.2-1.03,0.4-1.53c0.13-0.28,0.38-0.5,0.7-0.58c-0.13-0.33-0.05-0.65,0.15-0.91
			c0.33-0.43,0.7-0.78,1.11-1.11c0.25-0.2,0.58-0.25,0.91-0.15c0.08-0.35,0.3-0.6,0.58-0.7c0.48-0.2,1.01-0.33,1.53-0.4
			c0.33-0.05,0.63,0.05,0.88,0.33c0.23-0.28,0.55-0.38,0.85-0.33c0.53,0.08,1.03,0.2,1.53,0.4c0.28,0.13,0.5,0.35,0.58,0.7
			c0.33-0.13,0.65-0.05,0.91,0.15c0.43,0.33,0.78,0.7,1.11,1.11c0.2,0.25,0.25,0.58,0.15,0.91c0.35,0.08,0.6,0.3,0.7,0.58
			c0.2,0.48,0.33,1.01,0.4,1.53c0.08,0.3-0.03,0.6-0.3,0.85c0.28,0.23,0.38,0.55,0.33,0.88c-0.08,0.53-0.2,1.03-0.4,1.53
			c-0.13,0.28-0.35,0.5-0.7,0.58c0.13,0.33,0.05,0.65-0.15,0.91c-0.33,0.43-0.7,0.78-1.11,1.11c-0.25,0.2-0.58,0.25-0.91,0.15
			c-0.08,0.35-0.3,0.6-0.58,0.7c-0.48,0.2-1.01,0.35-1.53,0.4c-0.33,0.05-0.63-0.05-0.88-0.33c-0.23,0.28-0.55,0.38-0.88,0.33
			c-0.53-0.08-1.03-0.2-1.53-0.4c-0.28-0.13-0.5-0.35-0.58-0.7c-0.33,0.13-0.65,0.05-0.91-0.15c-0.43-0.33-0.78-0.7-1.11-1.11
			c-0.2-0.25-0.25-0.58-0.15-0.91c-0.35-0.08-0.6-0.3-0.7-0.58c-0.2-0.48-0.35-1.01-0.4-1.53c-0.05-0.33,0.05-0.63,0.33-0.88
			C78.84,41.09,78.74,40.79,78.79,40.49L78.79,40.49z"/>
		<path class="st6" d="M79.64,43.56c0.13,0.28,0.45,0.38,0.7,0.23l3.8-2.19h-4.37c-0.3,0-0.53,0.25-0.48,0.55
			C79.34,42.63,79.47,43.1,79.64,43.56L79.64,43.56z"/>
		<path class="st6" d="M82.83,46.75c0.45,0.18,0.93,0.3,1.41,0.38c0.33,0.03,0.55-0.18,0.55-0.5v-4.37l-2.19,3.8
			C82.46,46.3,82.56,46.62,82.83,46.75L82.83,46.75z"/>
		<path class="st5" d="M80.6,38.48l3.8,2.19l-2.19-3.8c-0.15-0.25-0.48-0.33-0.73-0.15c-0.38,0.3-0.73,0.65-1.03,1.03
			C80.27,38,80.35,38.35,80.6,38.48L80.6,38.48z"/>
		<path class="st5" d="M79.77,40.89h4.37l-3.8-1.99c-0.25-0.14-0.58-0.05-0.7,0.21c-0.18,0.41-0.3,0.85-0.38,1.28
			C79.24,40.66,79.47,40.89,79.77,40.89L79.77,40.89z"/>
	</g>
</g>
</svg>
