<?xml version="1.0" encoding="utf-8"?>
<!-- Generator: Adobe Illustrator 23.0.5, SVG Export Plug-In . SVG Version: 6.00 Build 0)  -->
<svg version="1.1" id="Capa_1" xmlns="http://www.w3.org/2000/svg" xmlns:xlink="http://www.w3.org/1999/xlink" x="0px" y="0px"
	 viewBox="0 0 100 70" style="enable-background:new 0 0 100 70;" xml:space="preserve">
<style type="text/css">
	.st0{fill:#DD5E00;}
	.st1{font-family:'Raylig-Regular';}
	.st2{font-size:53.4933px;}
</style>
<g>
	<text transform="matrix(1 0 0 1 16.0688 56.2115)" class="st0 st1 st2">E</text>
	<g>
		<path class="st0" d="M60.6,18.1h8.7l10.8,29.8C82.5,44.6,84,40.5,84,36c0-11.2-9.1-20.2-20.2-20.2s-20.4,9-20.4,20.2
			c0,5.5,2.2,10.4,5.7,14.1L60.6,18.1z"/>
		<path class="st0" d="M72.4,47.2l-15.1,0.1l-2.2,7.1c2.6,1.2,5.5,1.9,8.6,1.9c3.9,0,7.6-1.1,10.7-3.1L72.4,47.2z"/>
		<polygon class="st0" points="59.6,41 70.4,41 65,25.1 		"/>
	</g>
</g>
</svg>
